<svg width="25" height="25" viewBox="0 0 25 25" fill="none" xmlns="http://www.w3.org/2000/svg">
<path d="M16.6444 0.000195038C16.3611 -0.00566433 16.0275 0.11997 15.6628 0.448437C13.3627 3.58847 14.4398 5.94829 15.6958 9.97451C17.0595 14.3458 15.8595 17.3487 10.9052 15.9376L11.5959 18.1358C17.5968 19.0268 18.7982 14.7285 17.9907 11.0134C16.8869 5.93457 15.3141 4.69375 17.5044 1.43384C17.763 0.889208 17.3683 0.0152341 16.6443 0.000243866L16.6444 0.000195038ZM18.6443 2.22847C18.2449 2.46191 18.105 2.78208 18.0911 3.4915C19.7036 4.82671 21.0745 6.71372 22.153 8.04267C21.754 8.27749 21.2544 8.49433 20.7066 8.42802C20.1958 7.72036 18.8359 6.13066 17.8282 5.17075C17.9103 6.04209 18.1512 6.69004 18.2243 7.44477C19.8044 9.19721 19.8883 10.0901 19.8883 10.0901C21.9267 10.1922 23.6462 9.31367 24.7935 8.29282C25.4123 7.76801 24.5465 6.34536 23.4421 7.32187C21.9502 5.4915 20.4066 3.725 18.6443 2.22847ZM11.9519 6.64204C8.75647 6.60605 6.47444 9.01489 6.63216 12.1463C6.88177 14.8876 8.13472 16.683 8.33559 18.8975L6.96358 17.3665C6.42704 17.3084 5.95673 17.2358 5.37769 17.5517L8.27079 20.5766C8.19255 21.0413 8.06112 21.5316 7.86232 22.0569C6.73013 20.9821 5.39741 19.3698 3.93578 17.8084C3.09106 17.9936 2.62609 18.4662 2.61744 18.4803L7.23034 23.3921C6.03448 24.6997 8.09547 25.5871 9.03198 24.5363C12.2543 20.8277 9.77147 16.4367 8.71619 12.2161L11.0649 14.7395C11.893 15.1881 13.0011 15.175 13.4119 14.9268L8.90283 10.2945C9.13578 9.78071 9.38149 9.65263 9.94299 9.37856L14.3412 13.9069C14.6196 13.3901 15.034 12.8968 14.5091 11.7926L11.6462 8.66245C12.1352 8.50063 13.2186 8.83706 14.0672 9.09912L13.3728 6.8122C12.8835 6.70224 12.4083 6.64717 11.9519 6.64204ZM4.88074 14.6511C2.63573 14.628 1.4026 15.5404 0.344402 16.4601C-0.603129 17.2892 0.592283 18.8022 1.66462 18.0254C3.00891 16.8407 4.14179 16.2154 6.29052 16.3672L5.90725 14.7209C5.54277 14.6768 5.20143 14.6544 4.88074 14.6511V14.6511Z" fill="#B3E8D1"/>
</svg>

