<svg width="33" height="28" viewBox="0 0 33 28" fill="none" xmlns="http://www.w3.org/2000/svg">
<path d="M31.625 0H1.375C1.01033 0 0.660591 0.144866 0.402728 0.402728C0.144866 0.660591 0 1.01033 0 1.375L0 26.125C0 26.4897 0.144866 26.8394 0.402728 27.0973C0.660591 27.3551 1.01033 27.5 1.375 27.5H31.625C31.9897 27.5 32.3394 27.3551 32.5973 27.0973C32.8551 26.8394 33 26.4897 33 26.125V1.375C33 1.01033 32.8551 0.660591 32.5973 0.402728C32.3394 0.144866 31.9897 0 31.625 0ZM30.25 23.375C30.25 24.1344 29.6344 24.75 28.875 24.75H28.1875C27.8078 24.75 27.5 24.4422 27.5 24.0625C27.5 23.6828 27.1922 23.375 26.8125 23.375H21.3125C20.9328 23.375 20.625 23.6828 20.625 24.0625C20.625 24.4422 20.3172 24.75 19.9375 24.75H4.75C3.64543 24.75 2.75 23.8546 2.75 22.75V4.75C2.75 3.64543 3.64543 2.75 4.75 2.75H28.25C29.3546 2.75 30.25 3.64543 30.25 4.75V23.375ZM14.1488 10.6012C14.1488 9.97766 14.3965 9.37961 14.8374 8.93867C15.2784 8.49772 15.8764 8.25 16.5 8.25C17.8062 8.25 18.8512 9.30875 18.8512 10.6012C18.8512 11.9075 17.8062 12.9663 16.5 12.9663C15.1938 12.9663 14.1488 11.9075 14.1488 10.6012ZM7.85125 12.7738C7.85125 11.7975 8.64875 11 9.625 11C10.0954 11 10.5466 11.1869 10.8792 11.5195C11.2119 11.8522 11.3988 12.3033 11.3988 12.7738C11.3988 13.75 10.6012 14.5337 9.625 14.5337C8.64875 14.5337 7.85125 13.75 7.85125 12.7738ZM21.6012 12.7738C21.6012 12.3033 21.7881 11.8522 22.1208 11.5195C22.4534 11.1869 22.9046 11 23.375 11C23.8454 11 24.2966 11.1869 24.6292 11.5195C24.9619 11.8522 25.1488 12.3033 25.1488 12.7738C25.1488 13.75 24.3512 14.5337 23.375 14.5337C22.3988 14.5337 21.6012 13.75 21.6012 12.7738ZM27.5 18.0675C27.5 18.7206 26.9706 19.25 26.3175 19.25H6.6825C6.02942 19.25 5.5 18.7206 5.5 18.0675C5.5 16.775 7.63125 15.7163 9.625 15.7163C9.95913 15.7163 10.2959 15.7458 10.626 15.8013C11.3776 15.9277 12.1729 15.78 12.8454 15.4213C13.8729 14.8732 15.2045 14.5337 16.5 14.5337C17.7955 14.5337 19.1271 14.8732 20.1546 15.4213C20.8271 15.78 21.6224 15.9277 22.374 15.8013C22.7041 15.7458 23.0409 15.7163 23.375 15.7163C25.3687 15.7163 27.5 16.775 27.5 18.0675Z" fill="#173F4D" fill-opacity="0.72"/>
</svg>
