<svg width="21" height="21" viewBox="0 0 21 21" fill="none" xmlns="http://www.w3.org/2000/svg">
<path d="M13.2143 20H18.6429C19.0028 20 19.348 19.857 19.6025 19.6025C19.857 19.348 20 19.0028 20 18.6429V2.35714C20 1.99721 19.857 1.65201 19.6025 1.3975C19.348 1.14298 19.0028 1 18.6429 1H13.2143C12.8543 1 12.5092 1.14298 12.2546 1.3975C12.0001 1.65201 11.8571 1.99721 11.8571 2.35714V18.6429C11.8571 19.0028 12.0001 19.348 12.2546 19.6025C12.5092 19.857 12.8543 20 13.2143 20ZM13.2143 20H5.75M9.14286 15.9286V20M11.8571 7.78571H20M13.8929 15.9286H17.9643M2.35714 5.07143H11.8571V15.9286H2.35714C1.99721 15.9286 1.65201 15.7856 1.3975 15.5311C1.14298 15.2766 1 14.9314 1 14.5714V6.42857C1 6.06863 1.14298 5.72344 1.3975 5.46893C1.65201 5.21441 1.99721 5.07143 2.35714 5.07143Z" stroke="#173F4D" stroke-width="2"/>
</svg>
