<svg width="40" height="28" viewBox="0 0 40 28" fill="none" xmlns="http://www.w3.org/2000/svg">
<path d="M32 0C36.4183 0 40 3.58172 40 8V9.5C40 13.9183 36.4183 17.5 32 17.5H8C3.58172 17.5 0 13.9183 0 9.5V8C0 3.58172 3.58172 0 8 0H32ZM37.5 8.75C37.5 5.29822 34.7018 2.5 31.25 2.5H8.75C5.29822 2.5 2.5 5.29822 2.5 8.75C2.5 12.2018 5.29822 15 8.75 15H31.25C34.7018 15 37.5 12.2018 37.5 8.75ZM35 6.25C35 6.94036 34.4404 7.5 33.75 7.5H16.25C15.5596 7.5 15 6.94036 15 6.25C15 5.55964 15.5596 5 16.25 5H33.75C34.4404 5 35 5.55964 35 6.25ZM27.5 11.25C27.5 11.9404 26.9404 12.5 26.25 12.5H16.25C15.5596 12.5 15 11.9404 15 11.25C15 10.5596 15.5596 10 16.25 10H26.25C26.9404 10 27.5 10.5596 27.5 11.25ZM12.5 8.75C12.5 10.8211 10.8211 12.5 8.75 12.5C6.67893 12.5 5 10.8211 5 8.75C5 6.67893 6.67893 5 8.75 5C10.8211 5 12.5 6.67893 12.5 8.75ZM10 8.75C10 8.05964 9.44036 7.5 8.75 7.5C8.05964 7.5 7.5 8.05964 7.5 8.75C7.5 9.44036 8.05964 10 8.75 10C9.44036 10 10 9.44036 10 8.75ZM5 21.25C5 20.5596 5.55964 20 6.25 20H33.75C34.4404 20 35 20.5596 35 21.25C35 21.9404 34.4404 22.5 33.75 22.5H6.25C5.55964 22.5 5 21.9404 5 21.25ZM10 26.25C10 25.5596 10.5596 25 11.25 25H28.75C29.4404 25 30 25.5596 30 26.25C30 26.9404 29.4404 27.5 28.75 27.5H11.25C10.5596 27.5 10 26.9404 10 26.25Z" fill="#173F4D" fill-opacity="0.72"/>
</svg>
