<svg width="30" height="8" viewBox="0 0 30 8" fill="none" xmlns="http://www.w3.org/2000/svg">
<path d="M3.74999 7.74994C5.82106 7.74994 7.49998 6.07103 7.49998 4C7.49998 1.92896 5.82106 0.250061 3.74999 0.250061C1.67893 0.250061 0 1.92896 0 4C0 6.07103 1.67893 7.74994 3.74999 7.74994Z" fill="#173F4D" fill-opacity="0.72"/>
<path d="M15 7.74994C17.071 7.74994 18.75 6.07103 18.75 4C18.75 1.92896 17.071 0.250061 15 0.250061C12.9289 0.250061 11.25 1.92896 11.25 4C11.25 6.07103 12.9289 7.74994 15 7.74994Z" fill="#173F4D" fill-opacity="0.72"/>
<path d="M26.25 7.74994C28.321 7.74994 30 6.07103 30 4C30 1.92896 28.321 0.250061 26.25 0.250061C24.1789 0.250061 22.5 1.92896 22.5 4C22.5 6.07103 24.1789 7.74994 26.25 7.74994Z" fill="#173F4D" fill-opacity="0.72"/>
</svg>
