<svg width="21" height="25" viewBox="0 0 21 25" fill="none" xmlns="http://www.w3.org/2000/svg">
<path d="M14.1561 1.95589C12.1531 0.786949 9.76812 0.460935 7.52498 1.04947C5.28184 1.63801 3.36408 3.09295 2.19305 5.09464C1.6128 6.08644 1.23358 7.18283 1.07705 8.32119C0.920519 9.45955 0.989739 10.6176 1.28076 11.7292C1.57178 12.8408 2.0789 13.8842 2.77316 14.7999C3.46743 15.7155 4.33524 16.4854 5.32705 17.0656C6.31888 17.6459 7.41527 18.0251 8.55365 18.1816C9.69202 18.3381 10.8501 18.2689 11.9617 17.9778C13.0733 17.6868 14.1167 17.1796 15.0323 16.4853C15.9479 15.7911 16.7178 14.9232 17.2981 13.9314C18.4698 11.9284 18.798 9.54189 18.2102 7.29695C17.6225 5.05201 16.167 3.13248 14.1641 1.96064C14.1614 1.95905 14.1587 1.95747 14.1561 1.95589ZM14.0396 3.03963C14.7561 3.64064 15.1331 4.74114 15.0956 6.17914C15.0836 6.64289 15.0258 7.13714 14.9256 7.65114L12.2556 6.08914L14.0396 3.03963ZM13.2671 2.62764L11.5001 5.64714L8.97005 4.16713C9.3688 3.82788 9.77155 3.53514 10.1696 3.29764C11.3323 2.60364 12.4143 2.37688 13.2671 2.62764ZM11.4071 1.81414C10.8483 1.96414 10.2796 2.21288 9.7213 2.54613C9.19805 2.85863 8.6778 3.24663 8.1718 3.69988L6.1393 2.51089C7.76173 1.6756 9.62327 1.42934 11.4071 1.81414ZM15.8088 4.48313C16.9175 5.82145 17.553 7.48862 17.6163 9.22538L15.7228 8.11763C15.8706 7.45463 15.9546 6.81114 15.9703 6.20189C15.9863 5.59389 15.9328 5.01438 15.8088 4.48313ZM5.2818 3.02289L7.51855 4.33138C6.8743 5.00113 6.2643 5.77889 5.71605 6.64889L3.18005 5.16514C3.7361 4.32226 4.44976 3.59501 5.2818 3.02289ZM8.2988 4.78789L11.0586 6.40239L9.5888 8.91463L6.4723 7.09114C7.0288 6.21363 7.6508 5.43814 8.2988 4.78789ZM11.8138 6.84439L14.7131 8.54064C14.4641 9.42414 14.0931 10.3464 13.6006 11.2614L10.3441 9.35638L11.8138 6.84439ZM15.4926 8.99663L17.5906 10.2239C17.4995 11.2295 17.215 12.208 16.7528 13.1056L14.3548 11.7029C14.8446 10.7989 15.2241 9.88613 15.4926 8.99663ZM2.7383 5.92039L5.27005 7.40164C4.77205 8.29764 4.38205 9.20413 4.1018 10.0899L1.90055 8.80238C1.99156 7.79673 2.27603 6.81812 2.7383 5.92039ZM6.0253 7.84364L9.14705 9.66988L7.6773 12.1819L4.8798 10.5454C5.14255 9.66488 5.5238 8.74938 6.0253 7.84364ZM9.9023 10.1116L13.1636 12.0196C12.6198 12.9009 12.0086 13.6816 11.3698 14.3421L8.43255 12.6236L9.9023 10.1116ZM13.9166 12.4601L16.3108 13.8609C15.7548 14.7037 15.0413 15.4312 14.2093 16.0034L12.1468 14.7966C12.7813 14.1181 13.3796 13.3331 13.9166 12.4601ZM1.8748 9.80089L3.85905 10.9616C3.68555 11.6884 3.58905 12.3934 3.57205 13.0574C3.5583 13.5786 3.5963 14.0789 3.68505 14.5461C2.57472 13.2074 1.93826 11.539 1.8748 9.80089ZM4.6533 11.4264L7.23555 12.9371L5.3978 16.0784C5.3528 16.0486 5.30955 16.0171 5.2653 15.9866C4.7043 15.3546 4.4138 14.3491 4.4468 13.0801C4.4603 12.5621 4.5293 12.0056 4.6533 11.4264ZM7.9908 13.3789L10.7128 14.9714C10.2686 15.3634 9.81755 15.6961 9.37255 15.9616C8.30455 16.5991 7.30505 16.8424 6.48855 16.6839C6.37605 16.6324 6.26405 16.5774 6.15305 16.5204L7.9908 13.3789ZM11.5066 15.4359L13.3516 16.5151C11.8847 17.2701 10.218 17.5459 8.58605 17.3039C9.0157 17.147 9.42927 16.9492 9.82105 16.7131C10.3913 16.3729 10.9586 15.9434 11.5066 15.4359Z" fill="#ED806E"/>
<path d="M15.1021 0.000638332C14.9402 0.00732097 14.7849 0.0662088 14.6593 0.168496C14.5338 0.270782 14.4447 0.410971 14.4054 0.568098C14.3661 0.725225 14.3787 0.890846 14.4414 1.04019C14.5041 1.18954 14.6134 1.31459 14.7531 1.39664C17.8336 3.26414 19.5991 6.61889 19.3663 10.1341C19.1336 13.6491 16.9386 16.7581 13.6353 18.2241C10.3321 19.6904 6.46605 19.2636 3.58455 17.1184C3.50556 17.0596 3.41576 17.0169 3.32027 16.9927C3.22478 16.9686 3.12547 16.9635 3.02801 16.9778C2.93056 16.992 2.83686 17.0253 2.75228 17.0758C2.6677 17.1263 2.59389 17.1929 2.53505 17.2719C2.47622 17.3509 2.43352 17.4407 2.4094 17.5362C2.38527 17.6317 2.38019 17.731 2.39444 17.8284C2.4087 17.9259 2.44201 18.0196 2.49247 18.1042C2.54293 18.1887 2.60956 18.2626 2.68855 18.3214C3.33732 18.8043 4.03597 19.2164 4.77255 19.5504C3.08255 20.0204 2.00005 20.7789 2.00005 21.7854C2.00005 23.5604 5.0953 24.9996 9.50005 24.9996C13.9048 24.9996 17.0001 23.5604 17.0001 21.7854C17.0001 20.7929 15.9488 20.0404 14.2988 19.5694C18.0661 17.8734 20.5941 14.2911 20.8628 10.2331C21.1328 6.15514 19.0761 2.26314 15.5303 0.113888C15.4022 0.0338817 15.2529 -0.00559032 15.1021 0.000638332ZM5.9103 19.9946C6.79012 20.2851 7.7015 20.4694 8.62505 20.5436V21.0611C8.62505 21.2418 8.71724 21.4151 8.88134 21.5429C9.04543 21.6706 9.26799 21.7424 9.50005 21.7424C9.73212 21.7424 9.95468 21.6706 10.1188 21.5429C10.2829 21.4151 10.3751 21.2418 10.3751 21.0611V20.5534C11.3221 20.4862 12.2573 20.3032 13.1598 20.0084C14.5788 20.3201 15.5001 20.8061 15.5001 21.3571C15.5001 22.3039 12.8138 23.0714 9.50005 23.0714C6.1863 23.0714 3.50005 22.3039 3.50005 21.3571C3.50005 20.7986 4.4468 20.3061 5.9103 19.9946Z" fill="#ED806E"/>
</svg>
