<svg width="24" height="29" viewBox="0 0 24 29" fill="none" xmlns="http://www.w3.org/2000/svg">
<path d="M9.83929 21.625H17.6964V23.5893H9.83929V21.625ZM5.91071 21.625H7.875V23.5893H5.91071V21.625ZM9.83929 16.7143H17.6964V18.6786H9.83929V16.7143ZM5.91071 16.7143H7.875V18.6786H5.91071V16.7143ZM9.83929 11.8036H17.6964V13.7679H9.83929V11.8036ZM5.91071 11.8036H7.875V13.7679H5.91071V11.8036Z" fill="#173F4D" fill-opacity="0.72"/>
<path d="M20.6429 3.94643H17.6964V2.96429C17.6964 2.44332 17.4895 1.9437 17.1211 1.57533C16.7527 1.20695 16.2531 1 15.7321 1H7.875C7.35404 1 6.85442 1.20695 6.48604 1.57533C6.11767 1.9437 5.91071 2.44332 5.91071 2.96429V3.94643H2.96429C2.44332 3.94643 1.9437 4.15338 1.57533 4.52175C1.20695 4.89013 1 5.38975 1 5.91071V26.5357C1 27.0567 1.20695 27.5563 1.57533 27.9247C1.9437 28.293 2.44332 28.5 2.96429 28.5H20.6429C21.1638 28.5 21.6634 28.293 22.0318 27.9247C22.4002 27.5563 22.6071 27.0567 22.6071 26.5357V5.91071C22.6071 5.38975 22.4002 4.89013 22.0318 4.52175C21.6634 4.15338 21.1638 3.94643 20.6429 3.94643ZM7.875 2.96429H15.7321V6.89286H7.875V2.96429ZM20.6429 26.5357H2.96429V5.91071H5.91071V8.85714H17.6964V5.91071H20.6429V26.5357Z" fill="#173F4D" fill-opacity="0.72"/>
<path d="M9.83929 21.625H17.6964V23.5893H9.83929V21.625ZM5.91071 21.625H7.875V23.5893H5.91071V21.625ZM9.83929 16.7143H17.6964V18.6786H9.83929V16.7143ZM5.91071 16.7143H7.875V18.6786H5.91071V16.7143ZM9.83929 11.8036H17.6964V13.7679H9.83929V11.8036ZM5.91071 11.8036H7.875V13.7679H5.91071V11.8036Z" stroke="#173F4D" stroke-opacity="0.72"/>
<path d="M20.6429 3.94643H17.6964V2.96429C17.6964 2.44332 17.4895 1.9437 17.1211 1.57533C16.7527 1.20695 16.2531 1 15.7321 1H7.875C7.35404 1 6.85442 1.20695 6.48604 1.57533C6.11767 1.9437 5.91071 2.44332 5.91071 2.96429V3.94643H2.96429C2.44332 3.94643 1.9437 4.15338 1.57533 4.52175C1.20695 4.89013 1 5.38975 1 5.91071V26.5357C1 27.0567 1.20695 27.5563 1.57533 27.9247C1.9437 28.293 2.44332 28.5 2.96429 28.5H20.6429C21.1638 28.5 21.6634 28.293 22.0318 27.9247C22.4002 27.5563 22.6071 27.0567 22.6071 26.5357V5.91071C22.6071 5.38975 22.4002 4.89013 22.0318 4.52175C21.6634 4.15338 21.1638 3.94643 20.6429 3.94643ZM7.875 2.96429H15.7321V6.89286H7.875V2.96429ZM20.6429 26.5357H2.96429V5.91071H5.91071V8.85714H17.6964V5.91071H20.6429V26.5357Z" stroke="#173F4D" stroke-opacity="0.72"/>
</svg>
