<svg width="38" height="28" viewBox="0 0 38 28" fill="none" xmlns="http://www.w3.org/2000/svg">
<path d="M20.6249 11.7313C19.4429 10.4617 18.721 8.76875 18.5937 6.96563C18.4577 5.04219 19.0444 3.27344 20.2452 1.98438C21.446 0.695313 23.1249 0 24.9999 0C26.8616 0 28.5452 0.707812 29.7421 1.99375L20.6249 11.7313ZM20.6249 11.7313L21.7227 10.7091C21.7225 10.7088 21.7222 10.7086 21.722 10.7083C21.7217 10.708 21.7214 10.7077 21.7211 10.7074L20.6249 11.7313ZM37.0132 26.6703C37.2296 26.3876 37.3794 26.0596 37.4514 25.7108C37.5234 25.3621 37.5156 25.0016 37.4288 24.6562C36.7741 21.9828 35.1421 19.7797 32.7116 18.2852C30.5468 16.9531 27.8788 16.25 24.9999 16.25C22.2053 16.25 19.4925 16.9695 17.3503 18.2766C17.3365 18.3028 17.3221 18.3287 17.3072 18.3542M37.0132 26.6703L35.8319 25.7458C35.8304 25.7479 35.8288 25.7499 35.8272 25.7519M37.0132 26.6703L35.8221 25.7586C35.8238 25.7563 35.8255 25.7541 35.8272 25.7519M37.0132 26.6703C36.8098 26.9303 36.5495 27.1402 36.2524 27.284C35.9553 27.4278 35.6292 27.5017 35.2991 27.5H14.7015C14.3703 27.5018 14.0432 27.4275 13.7452 27.283C13.4472 27.1385 13.1864 26.9276 12.9827 26.6664M35.8272 25.7519C35.9036 25.65 35.9566 25.5325 35.9823 25.4077C36.0087 25.2801 36.0058 25.1483 35.9741 25.022L35.9718 25.013C35.4149 22.7387 34.0343 20.8594 31.9259 19.5629L31.9256 19.5627C30.0277 18.395 27.6396 17.75 24.9999 17.75C22.4226 17.75 19.9626 18.423 18.074 19.5925M35.8272 25.7519C35.7656 25.8287 35.6876 25.8909 35.5989 25.9338C35.5079 25.9779 35.408 26.0005 35.3068 26H35.2991L14.7015 26L14.6934 26C14.5917 26.0006 14.4913 25.9778 14.3998 25.9334C14.3105 25.8901 14.2321 25.8274 14.1703 25.7499M18.074 19.5925C18.0741 19.5924 18.0742 19.5924 18.0743 19.5923L17.3072 18.3542M18.074 19.5925L17.3072 18.3542M18.074 19.5925C15.9638 20.8999 14.5857 22.7717 14.0273 25.014L14.0254 25.0218L14.0254 25.0218C13.9933 25.1476 13.9902 25.2791 14.0161 25.4063C14.0415 25.5309 14.0942 25.6482 14.1703 25.7499M17.3072 18.3542C17.1577 18.6108 16.9557 18.8338 16.7137 19.0082L16.7087 19.0118C14.6947 20.451 13.3568 22.4002 12.7836 24.7022L12.7831 24.7042L12.7828 24.7053L12.7805 24.7147L12.7805 24.7147C12.7763 24.7306 12.7744 24.7405 12.7736 24.7447L12.7719 24.7548L12.7718 24.7548C12.7264 25.0048 12.6369 25.2427 12.5094 25.458C12.5173 25.5411 12.5296 25.6239 12.5464 25.7061C12.6175 26.055 12.7667 26.3833 12.9827 26.6664M14.1703 25.7499C14.1687 25.748 14.1671 25.746 14.1656 25.744L12.9827 26.6664M14.1703 25.7499C14.1719 25.7521 14.1736 25.7543 14.1752 25.7565L12.9827 26.6664M11.0248 24.7867C11.038 24.6735 11.0562 24.5608 11.0795 24.4489L10.6853 24.3801M11.0248 24.7867L10.6853 24.3801M11.0248 24.7867L10.6853 24.3801M11.0248 24.7867C11.0202 24.826 11.0162 24.8653 11.0128 24.9047C10.9139 24.9666 10.799 25 10.6812 25M10.6853 24.3801L10.6812 24.3794V25M10.6812 25L10.6811 24.3793L0.439755 24.2375C0.625651 24.4761 0.863805 24.669 1.1359 24.8012C1.408 24.9334 1.70678 25.0014 2.00929 25H10.6812ZM28.2739 10.7084C28.2738 10.7085 28.2737 10.7086 28.2736 10.7087L29.3718 11.7305L28.2739 10.7084ZM29.9069 6.85673C29.9069 6.85701 29.9069 6.85728 29.9069 6.85756C29.9069 6.85777 29.9068 6.85798 29.9068 6.85819L31.403 6.96484L29.9069 6.85673ZM1.79137 23.452C1.72755 23.421 1.67145 23.3761 1.62712 23.3208C1.5709 23.2455 1.53193 23.1587 1.51304 23.0666C1.49366 22.9721 1.49591 22.8744 1.51961 22.7809L1.52109 22.775C1.96302 21.0002 3.05179 19.5179 4.73054 18.4759C6.225 17.55 8.18029 17.0117 10.2351 17.0117C11.6007 17.0117 12.8085 17.1879 13.7948 17.5047C11.9758 19.1258 10.6773 21.1627 10.0009 23.5L2.00929 23.5L2.00247 23.5C1.92935 23.5003 1.85713 23.4839 1.79137 23.452ZM15.4712 17.2844L15.0824 17.0968L15.4712 17.2844ZM7.34801 5.19763L7.34839 5.19722C8.05049 4.44217 9.06008 4 10.2343 4C11.4018 4 12.4027 4.4406 13.1145 5.20641L13.115 5.20691C13.8345 5.9802 14.2123 7.04671 14.1235 8.25657L14.1232 8.25959C13.9423 10.7946 12.0239 12.5625 10.2343 12.5625C8.43971 12.5625 6.52169 10.7939 6.33998 8.25984C6.25563 7.02947 6.63892 5.95964 7.34801 5.19763Z" stroke="#173F4D" stroke-opacity="0.72" stroke-width="3"/>
</svg>
