<svg width="31" height="25" viewBox="0 0 31 25" fill="none" xmlns="http://www.w3.org/2000/svg">
<path d="M10.3333 25C9.45897 25 8.71021 24.6938 8.08703 24.0813C7.46385 23.4688 7.15279 22.7333 7.15385 21.875V17.1875H11.9231V13.6719C10.9957 13.6198 10.1145 13.4177 9.27933 13.0656C8.44419 12.7135 7.6827 12.1865 6.99487 11.4844V9.76562H5.16667L0 4.6875C0.953846 3.48958 2.13291 2.64323 3.53718 2.14844C4.94145 1.65365 6.35897 1.40625 7.78974 1.40625C8.50513 1.40625 9.20091 1.45833 9.87708 1.5625C10.5532 1.66667 11.2352 1.86198 11.9231 2.14844V0H31V20.3125C31 21.6146 30.5363 22.7214 29.609 23.6328C28.6816 24.5443 27.5556 25 26.2308 25H10.3333ZM15.1026 17.1875H24.641V20.3125C24.641 20.7552 24.7936 21.1266 25.0989 21.4266C25.4041 21.7266 25.7814 21.876 26.2308 21.875C26.6812 21.875 27.059 21.725 27.3643 21.425C27.6695 21.125 27.8216 20.7542 27.8205 20.3125V3.125H15.1026V4.0625L24.641 13.4375V15.625H22.4154L17.8846 11.1719L17.5667 11.4844C17.1957 11.849 16.8046 12.1745 16.3934 12.4609C15.9822 12.7474 15.5519 12.9687 15.1026 13.125V17.1875ZM6.51795 6.64062H10.1744V10C10.4923 10.2083 10.8235 10.3516 11.1679 10.4297C11.5124 10.5078 11.8701 10.5469 12.241 10.5469C12.8504 10.5469 13.4005 10.4557 13.8912 10.2734C14.3819 10.0911 14.8652 9.76562 15.341 9.29688L15.659 8.98438L13.4333 6.79688C12.665 6.04167 11.8038 5.475 10.85 5.09688C9.89615 4.71875 8.87607 4.53021 7.78974 4.53125C7.25983 4.53125 6.75641 4.57031 6.27949 4.64844C5.80256 4.72656 5.32564 4.84375 4.84872 5L6.51795 6.64062Z" fill="#EFA894"/>
</svg>
