<svg width="26" height="18" viewBox="0 0 26 18" fill="none" xmlns="http://www.w3.org/2000/svg">
<path d="M15.3636 5.55412C15.3636 5.37964 15.4278 5.20013 15.5563 5.01557C15.6839 4.83179 15.8265 4.71082 15.9841 4.65267C16.5553 4.4588 17.1265 4.31341 17.6977 4.21648C18.2689 4.11955 18.8697 4.07108 19.5 4.07108C19.8939 4.07108 20.2832 4.09512 20.6676 4.1432C21.0513 4.19205 21.4303 4.25525 21.8045 4.33279C21.9818 4.37157 22.1343 4.4685 22.2619 4.62359C22.3903 4.77868 22.4545 4.95315 22.4545 5.14701C22.4545 5.47658 22.3462 5.7189 22.1295 5.87399C21.9129 6.02908 21.6371 6.06785 21.3023 5.99031C21.0265 5.93215 20.7362 5.88834 20.4313 5.85887C20.1256 5.83018 19.8152 5.81583 19.5 5.81583C18.9879 5.81583 18.4856 5.8643 17.9932 5.96123C17.5008 6.05816 17.028 6.18417 16.575 6.33926C16.2205 6.47496 15.9301 6.46527 15.704 6.31018C15.4771 6.15509 15.3636 5.90307 15.3636 5.55412ZM15.3636 11.9515C15.3636 11.7771 15.4278 11.5975 15.5563 11.413C15.6839 11.2292 15.8265 11.1082 15.9841 11.0501C16.5553 10.8562 17.1265 10.7108 17.6977 10.6139C18.2689 10.517 18.8697 10.4685 19.5 10.4685C19.8939 10.4685 20.2832 10.4925 20.6676 10.5406C21.0513 10.5895 21.4303 10.6527 21.8045 10.7302C21.9818 10.769 22.1343 10.8659 22.2619 11.021C22.3903 11.1761 22.4545 11.3506 22.4545 11.5444C22.4545 11.874 22.3462 12.1163 22.1295 12.2714C21.9129 12.4265 21.6371 12.4653 21.3023 12.3877C21.0265 12.3296 20.7362 12.2858 20.4313 12.2563C20.1256 12.2276 19.8152 12.2132 19.5 12.2132C18.9879 12.2132 18.4856 12.2571 17.9932 12.3447C17.5008 12.4315 17.028 12.5525 16.575 12.7076C16.2205 12.8433 15.9301 12.8383 15.704 12.6925C15.4771 12.5475 15.3636 12.3005 15.3636 11.9515ZM15.3636 8.75283C15.3636 8.57835 15.4278 8.39884 15.5563 8.21428C15.6839 8.0305 15.8265 7.90953 15.9841 7.85137C16.5553 7.65751 17.1265 7.51212 17.6977 7.41519C18.2689 7.31826 18.8697 7.26979 19.5 7.26979C19.8939 7.26979 20.2832 7.29383 20.6676 7.34191C21.0513 7.39076 21.4303 7.45396 21.8045 7.5315C21.9818 7.57028 22.1343 7.66721 22.2619 7.82229C22.3903 7.97738 22.4545 8.15186 22.4545 8.34572C22.4545 8.67528 22.3462 8.91761 22.1295 9.0727C21.9129 9.22779 21.6371 9.26656 21.3023 9.18901C21.0265 9.13086 20.7362 9.08704 20.4313 9.05758C20.1256 9.02888 19.8152 9.01454 19.5 9.01454C18.9879 9.01454 18.4856 9.063 17.9932 9.15993C17.5008 9.25687 17.028 9.38288 16.575 9.53796C16.2205 9.67367 15.9301 9.66397 15.704 9.50889C15.4771 9.3538 15.3636 9.10178 15.3636 8.75283ZM6.5 13.958C7.42576 13.958 8.32709 14.0596 9.204 14.2627C10.0801 14.4667 10.9515 14.7722 11.8182 15.1793V3.72213C11.0106 3.25687 10.1538 2.90792 9.24773 2.67528C8.34167 2.44265 7.42576 2.32633 6.5 2.32633C5.79091 2.32633 5.08694 2.39418 4.38809 2.52989C3.68845 2.66559 3.01364 2.86914 2.36364 3.14055V14.6559C3.05303 14.4233 3.7377 14.2488 4.41764 14.1325C5.09679 14.0162 5.79091 13.958 6.5 13.958ZM14.1818 15.1793C15.0485 14.7722 15.9203 14.4667 16.7972 14.2627C17.6733 14.0596 18.5742 13.958 19.5 13.958C20.2091 13.958 20.9036 14.0162 21.5835 14.1325C22.2627 14.2488 22.947 14.4233 23.6364 14.6559V3.14055C22.9864 2.86914 22.3119 2.66559 21.6131 2.52989C20.9135 2.39418 20.2091 2.32633 19.5 2.32633C18.5742 2.32633 17.6583 2.44265 16.7523 2.67528C15.8462 2.90792 14.9894 3.25687 14.1818 3.72213V15.1793ZM13 18C12.7242 18 12.4635 17.9663 12.2176 17.8988C11.971 17.8306 11.7394 17.7383 11.5227 17.622C10.7545 17.1761 9.94697 16.8419 9.1 16.6193C8.25303 16.396 7.38636 16.2843 6.5 16.2843C5.67273 16.2843 4.86042 16.391 4.06309 16.6042C3.26497 16.8174 2.50152 17.1179 1.77273 17.5057C1.35909 17.7189 0.960424 17.7092 0.576727 17.4766C0.192242 17.2439 0 16.9047 0 16.4588V2.44265C0 2.2294 0.0543636 2.02585 0.163091 1.83199C0.27103 1.63813 0.433333 1.49273 0.65 1.3958C1.55606 0.930533 2.50152 0.581583 3.48636 0.34895C4.47121 0.116317 5.47576 0 6.5 0C7.64242 0 8.76042 0.145396 9.854 0.436187C10.9468 0.726979 11.9955 1.16317 13 1.74475C14.0045 1.16317 15.0536 0.726979 16.1472 0.436187C17.24 0.145396 18.3576 0 19.5 0C20.5242 0 21.5288 0.116317 22.5136 0.34895C23.4985 0.581583 24.4439 0.930533 25.35 1.3958C25.5667 1.49273 25.7294 1.63813 25.8381 1.83199C25.946 2.02585 26 2.2294 26 2.44265V16.4588C26 16.9047 25.8082 17.2439 25.4245 17.4766C25.04 17.7092 24.6409 17.7189 24.2273 17.5057C23.4985 17.1179 22.735 16.8174 21.9369 16.6042C21.1396 16.391 20.3273 16.2843 19.5 16.2843C18.6136 16.2843 17.747 16.396 16.9 16.6193C16.053 16.8419 15.2455 17.1761 14.4773 17.622C14.2606 17.7383 14.0294 17.8306 13.7835 17.8988C13.5369 17.9663 13.2758 18 13 18Z" fill="#65C6CA"/>
</svg>
