<svg width="35" height="28" viewBox="0 0 35 28" fill="none" xmlns="http://www.w3.org/2000/svg">
<path d="M33.75 2.5H29.5C28.3954 2.5 27.5 1.60457 27.5 0.5V0.3125C27.5 0.140625 27.3594 0 27.1875 0H25C24.8281 0 24.6875 0.140625 24.6875 0.3125V0.5C24.6875 1.60457 23.7921 2.5 22.6875 2.5H20.9062C19.8017 2.5 18.9062 1.60457 18.9062 0.5V0.3125C18.9062 0.140625 18.7656 0 18.5938 0H16.4062C16.2344 0 16.0938 0.140625 16.0938 0.3125V0.5C16.0938 1.60457 15.1983 2.5 14.0938 2.5H12.3125C11.2079 2.5 10.3125 1.60457 10.3125 0.5V0.3125C10.3125 0.140625 10.1719 0 10 0H7.8125C7.64062 0 7.5 0.140625 7.5 0.3125V0.5C7.5 1.60457 6.60457 2.5 5.5 2.5H1.25C0.558594 2.5 0 3.05859 0 3.75V26.25C0 26.9414 0.558594 27.5 1.25 27.5H33.75C34.4414 27.5 35 26.9414 35 26.25V3.75C35 3.05859 34.4414 2.5 33.75 2.5ZM32.1875 22.6875C32.1875 23.7921 31.2921 24.6875 30.1875 24.6875H4.8125C3.70793 24.6875 2.8125 23.7921 2.8125 22.6875V7.3125C2.8125 6.20793 3.70793 5.3125 4.8125 5.3125H5.5C6.60457 5.3125 7.5 6.20793 7.5 7.3125V7.5C7.5 7.67188 7.64062 7.8125 7.8125 7.8125H10C10.1719 7.8125 10.3125 7.67188 10.3125 7.5V7.3125C10.3125 6.20793 11.2079 5.3125 12.3125 5.3125H14.0938C15.1983 5.3125 16.0938 6.20793 16.0938 7.3125V7.5C16.0938 7.67188 16.2344 7.8125 16.4062 7.8125H18.5938C18.7656 7.8125 18.9062 7.67188 18.9062 7.5V7.3125C18.9062 6.20793 19.8017 5.3125 20.9062 5.3125H22.6875C23.7921 5.3125 24.6875 6.20793 24.6875 7.3125V7.5C24.6875 7.67188 24.8281 7.8125 25 7.8125H27.1875C27.3594 7.8125 27.5 7.67188 27.5 7.5V7.3125C27.5 6.20793 28.3954 5.3125 29.5 5.3125H30.1875C31.2921 5.3125 32.1875 6.20793 32.1875 7.3125V22.6875ZM13.75 13.125H6.5625C6.39062 13.125 6.25 13.2656 6.25 13.4375V15.3125C6.25 15.4844 6.39062 15.625 6.5625 15.625H13.75C13.9219 15.625 14.0625 15.4844 14.0625 15.3125V13.4375C14.0625 13.2656 13.9219 13.125 13.75 13.125ZM13.75 18.4375H6.5625C6.39062 18.4375 6.25 18.5781 6.25 18.75V20.625C6.25 20.7969 6.39062 20.9375 6.5625 20.9375H13.75C13.9219 20.9375 14.0625 20.7969 14.0625 20.625V18.75C14.0625 18.5781 13.9219 18.4375 13.75 18.4375ZM25.7891 11.5078L23.363 14.8729C22.5652 15.9795 20.9181 15.9802 20.1194 14.8744L19.6797 14.2656C19.5625 14.1016 19.375 14.0078 19.1758 14.0078H17.0312C16.7773 14.0078 16.6289 14.2969 16.7773 14.5039L21.2344 20.6836C21.2919 20.7635 21.3676 20.8285 21.4552 20.8733C21.5428 20.9182 21.6399 20.9416 21.7383 20.9416C21.8367 20.9416 21.9337 20.9182 22.0213 20.8733C22.1089 20.8285 22.1846 20.7635 22.2422 20.6836L28.6875 11.75C28.8359 11.543 28.6875 11.2539 28.4336 11.2539H26.2891C26.0938 11.25 25.9062 11.3477 25.7891 11.5078Z" fill="#173F4D" fill-opacity="0.72"/>
</svg>
